<svg xmlns="http://www.w3.org/2000/svg" viewBox="0 0 685.05 180.13"><title>logo</title><g id="Warstwa_2" data-name="Warstwa 2"><g id="Livello_1" data-name="Livello 1"><polygon points="193.3 179.55 193.3 171.7 201.3 171.7 201.3 166.52 193.3 166.52 193.3 162.49 203.31 162.49 203.31 157.3 186.03 157.3 186.03 179.55 193.3 179.55" style="fill:#009640;fill-rule:evenodd"/><path d="M220.66,162.49h.22c1.66,0,3,.72,3,2.3s-1.15,2.09-3.17,2.09v4.9c2.52.21,3,1.22,3,3.88a13.42,13.42,0,0,0,.36,3.89h7.34v-.72c-.86,0-.79-1-.79-3.89,0-4.46-1.37-5-3.75-5.9,2.6-.72,3.75-2.88,3.75-5.4,0-4.32-2.45-6.34-9.87-6.34h0Zm-3.16,0h3.16V157.3H210.15v22.25h7.35v-7.77h3.16v-4.9H217.5Z" style="fill:#009640;fill-rule:evenodd"/><path d="M250.54,172h-2.23v4.61h3.53l.86,3H260l-8-22.25h-3.67v6.84C248.6,165.22,250.54,172,250.54,172Zm-2.23,0H246l2.23-8a.22.22,0,0,0,.07.14V157.3h-3.74l-7.92,22.25h7.13l.79-3h3.74Z" style="fill:#009640;fill-rule:evenodd"/><polygon points="273.22 157.3 266.38 157.3 266.38 179.55 273.37 179.55 273.37 172.5 273.08 167.46 281 179.55 287.84 179.55 287.84 157.3 280.86 157.3 280.86 164.36 281.14 169.4 273.22 157.3" style="fill:#009640;fill-rule:evenodd"/><path d="M316.86,165.8c-.58-5.69-4.4-9.07-11.16-9.07-6.2,0-11.09,4.46-11.09,11.66s4.46,11.74,11.81,11.74c5.83,0,9.93-3.46,10.58-9.22h-7c-.29,2.16-1.37,3.75-3.75,3.75-3.67,0-4.39-2.88-4.39-6,0-4.25,1.58-6.48,4.1-6.48a3.7,3.7,0,0,1,4,3.67Z" style="fill:#009640;fill-rule:evenodd"/><polygon points="331.33 179.55 331.33 170.91 338.24 170.91 338.24 179.55 345.44 179.55 345.44 157.3 338.24 157.3 338.24 164.79 331.33 164.79 331.33 157.3 324.06 157.3 324.06 179.55 331.33 179.55" style="fill:#009640;fill-rule:evenodd"/><rect x="353.86" y="157.3" width="7.27" height="22.25" style="fill:#009640"/><path d="M388.14,163.78c-.51-3.88-3.32-7.05-9.51-7.05-5.54,0-9.57,2.37-9.57,7.05,0,8.5,12.74,6.2,12.74,9.58,0,1-1.22,1.66-3,1.66a4.12,4.12,0,0,1-2.09-.58,2.49,2.49,0,0,1-1.15-1.8h-7c.15,4,4,7.49,9.79,7.49,6.12,0,10.44-2.52,10.44-7.71,0-8.06-12.81-6-12.81-9.28,0-.87.72-1.3,2.37-1.3a4.21,4.21,0,0,1,1.88.43,1.74,1.74,0,0,1,1,1.51Z" style="fill:#009640;fill-rule:evenodd"/><rect x="396.13" y="157.3" width="7.27" height="22.25" style="fill:#009640"/><polygon points="418.66 157.3 411.9 157.3 411.9 179.55 418.88 179.55 418.88 172.5 418.59 167.46 426.51 179.55 433.35 179.55 433.35 157.3 426.37 157.3 426.37 164.36 426.66 169.4 418.66 157.3" style="fill:#009640;fill-rule:evenodd"/><path d="M463.09,167.31h-10v4.83h3.24c-.36,1.51-2.3,2.52-3.74,2.52-3.68,0-4.68-2.88-4.68-6,0-4,1.36-6.55,4.24-6.55a3.66,3.66,0,0,1,3.75,2.81h6.91c-.94-5.48-5.18-8.21-10.51-8.21-7.2,0-11.67,4.89-11.67,12,0,7.78,5.12,11.45,10.8,11.45,3.46,0,5.48-1.3,6.7-2.74l.29,2.16h4.68Z" style="fill:#009640;fill-rule:evenodd"/><polygon points="492.32 157.3 485.48 157.3 485.48 179.55 492.46 179.55 492.46 172.5 492.18 167.46 500.1 179.55 506.94 179.55 506.94 157.3 499.95 157.3 499.95 164.36 500.24 169.4 492.32 157.3" style="fill:#009640;fill-rule:evenodd"/><polygon points="533.94 179.55 533.94 174.37 522.63 174.37 522.63 170.84 531.85 170.84 531.85 165.66 522.63 165.66 522.63 162.49 533.5 162.49 533.5 157.3 515.36 157.3 515.36 179.55 533.94 179.55" style="fill:#009640;fill-rule:evenodd"/><polygon points="540.27 163.14 546.75 163.14 546.75 179.55 554.1 179.55 554.1 163.14 560.58 163.14 560.58 157.3 540.27 157.3 540.27 163.14" style="fill:#009640;fill-rule:evenodd"/><polygon points="583.98 157.3 577.93 157.3 575.26 171.06 575.19 171.06 572.74 157.3 565.69 157.3 571.23 179.55 578.36 179.55 580.88 166.59 580.95 166.59 583.54 179.55 590.67 179.55 596.22 157.3 589.16 157.3 586.71 171.06 586.64 171.06 583.98 157.3" style="fill:#009640;fill-rule:evenodd"/><path d="M613.21,162.13c3.17,0,4.39,3.17,4.39,6.19,0,3.67-1.22,6.34-4.39,6.34v5.47c6.62,0,11.66-4.25,11.66-11.81,0-5.9-3.74-11.59-11.66-11.59Zm-.07,0h.07v-5.4h0c-6.91,0-11.67,4.53-11.67,11.52,0,7.56,4.68,11.88,11.67,11.88h0v-5.47h0c-3.46,0-4.32-3.53-4.32-6.34S609.82,162.13,613.14,162.13Z" style="fill:#009640;fill-rule:evenodd"/><path d="M642.37,162.49h.21c1.73,0,3,.72,3,2.3s-1.08,2.09-3.17,2.09v4.9c2.59.21,3,1.22,3,3.88a17.29,17.29,0,0,0,.36,3.89h7.42v-.72c-.87,0-.8-1-.8-3.89,0-4.46-1.44-5-3.74-5.9,2.59-.72,3.74-2.88,3.74-5.4,0-4.32-2.44-6.34-9.86-6.34h-.07Zm-3.17,0h3.17V157.3H631.93v22.25h7.27v-7.77h3.17v-4.9H639.2Z" style="fill:#009640;fill-rule:evenodd"/><polygon points="660.37 179.55 667.64 179.55 667.64 172.5 669.37 170.7 674.7 179.55 683.41 179.55 674.48 165.66 682.54 157.3 674.05 157.3 667.64 164.5 667.64 157.3 660.37 157.3 660.37 179.55" style="fill:#009640;fill-rule:evenodd"/><path d="M16.33,19H167.67c4.9,0,8.93,7.13,8.93,15.84V161.55c0,8.71-4,15.84-8.93,15.84H16.33c-4.9,0-8.86-7.13-8.86-15.84V34.83C7.47,26.12,11.43,19,16.33,19Z" style="fill:#009640;stroke:#009640;stroke-miterlimit:10;stroke-width:2.0001px;fill-rule:evenodd"/><path d="M30.37,2H670.09c7.13,0,13,3.31,13,7.34V141.18c0,4-5.83,7.27-13,7.27H30.37c-7.13,0-13-3.31-13-7.27V9.34C17.41,5.31,23.24,2,30.37,2Z" style="fill:#fff;stroke:#009640;stroke-miterlimit:10;stroke-width:4px;fill-rule:evenodd"/><path d="M667.06,36.63h0a6,6,0,0,0,4.4-1.87,6.18,6.18,0,0,0,0-8.86,6,6,0,0,0-4.4-1.87h0V22.74h0A7.08,7.08,0,0,1,672.39,25a7.08,7.08,0,0,1,2.23,5.33,7.12,7.12,0,0,1-2.23,5.4h0a7.39,7.39,0,0,1-5.33,2.16h0V36.63Zm0-5a1.24,1.24,0,0,1,.58.15.78.78,0,0,1,.58.57,3.11,3.11,0,0,1,.14,1c.07.5.07.94.14,1.22h2.09l-.07-.28a.27.27,0,0,0-.07-.22V33a2.17,2.17,0,0,0-.72-1.87,3.18,3.18,0,0,0-1.23-.5,2.89,2.89,0,0,0,1.52-.58,1.84,1.84,0,0,0,.57-1.51,2.09,2.09,0,0,0-1.15-2,4.69,4.69,0,0,0-1.66-.43h-.72v1.51a1.92,1.92,0,0,1,.72.15h0a.91.91,0,0,1,.65.93,1.12,1.12,0,0,1-.43,1,1.87,1.87,0,0,1-.94.29ZM662.6,25.9a6.07,6.07,0,0,0-1.8,4.4,6.16,6.16,0,0,0,1.87,4.46,5.89,5.89,0,0,0,4.39,1.87v1.23a7.38,7.38,0,0,1-7.56-7.56,7.31,7.31,0,0,1,2.38-5.55,7.22,7.22,0,0,1,5.18-2V24a6.16,6.16,0,0,0-4.46,1.87Zm4.46.22h-3.31v8.42h2.16v-3h.51l.5.07h.14V30h-1.15V27.56h.58c.21,0,.36.07.57.07Z" style="fill:#009640;fill-rule:evenodd"/><path d="M203.89,62.34c-.51,4.17-3.89,3.45-5.91,2s-10.8-4.82-13.17-16.41-1.3-18-.36-21.68,1.44-5.11,6.41-5.25,37.65-1,42.48-1.15,7.48,1.44,8.78,5.54,3.53,11.38,3.53,14.11-1.73,11.23-5.91,18.94-7.56,9.93-8.64,6.84.15-10.87,1.08-14.4,2.38-10.66-1.65-12.67-8.79-4-7.85.79a134.85,134.85,0,0,1,.5,38.37c-2.37,17.93-1.8,28.23-.14,38.52s3.67,16.71.36,16.71H204.68c-2.81,0-4.1-1.08-4.82-8.64s1.29-16.56,4.82-32.91,6.77-37.36,4.9-47.08-13-3.75-11,3.6S205.4,56.07,203.89,62.34Z" style="fill:#009640;fill-rule:evenodd"/><path d="M270.34,35.7c3.1,1.65,6.05,4.24,7.28,6.62,1.8,3.46,2,5.47.36,6.91a41.91,41.91,0,0,1-7.64,4.61V62.7A113,113,0,0,1,288.63,52c3.89-1.66,6.34-10,6.63-18.14V31.09c0-.15,0-.29-.08-.36-.36-9-6.4-12.17-11-13.11a56,56,0,0,0-13.83-.36V35.7Zm0,96.91V107.7a5.85,5.85,0,0,0,4.11,1.94c5.9,0,10.08-6,9.93-15s0-11.73,0-14.11,1.8-4.39,5-2.38,4.18,6.27,4.18,12.89,0,22.9-3.46,31.54-5.69,9.86-8.28,10.08c-2.09.14-7.56.07-11.45,0Zm0-52.63V69.82c1.23-.79,2.67-1.94,4.11-3.09,3.67-3,14.47-9,16.56-9.36h0c2-.43,2.37.5,2.52,2.16s.43,6.26-1.66,6.62S282,70.9,273.87,77A39.74,39.74,0,0,0,270.34,80Zm-3-25c-3.31.87-5.33-.36-5.54-4.25a121.14,121.14,0,0,1,0-12.67c.21-2.81-.36-4.75,4-4a13.32,13.32,0,0,1,4.53,1.66V17.26c-2,.15-4.17.44-6.33.8-8.28,1.22-8.86,4.6-12.17,9.5s-4.75,22.1-5.33,45.94a19.87,19.87,0,0,1-.07,2.08v5.76c.29,18.58,3.53,28.44,7.42,38,4.46,10.87,10.65,13.25,14.18,13.25h2.3V107.7c-3.31-3.39-5.11-10.3-5.25-14.76-.15-5,.43-8.5,5.25-13V69.82c-1.8,1.16-3.31,1.66-4.32.58-1.65-1.87,0-3.67,3.24-6.77.29-.29.65-.57,1.08-.93V53.84A29.41,29.41,0,0,1,267.32,55Z" style="fill:#009640;fill-rule:evenodd"/><path d="M351.7,26.26c-.14-3.24,1.52-6.76,5.69-6.4s10.51-.94,12.75,5,3.45,11.6,4.89,23.55,7.2,20.52,13.83,20.95,4.24-7.85,3.67-9.94c-2.38-8.85-12.31-22.46-14.19-23.76s-4-4.53-1.44-7.7,7-9.14,12.32-9.14S399.87,21,399.66,39.73s-.72,87.69-.72,89.93-1.08,3-2.38,3h-10.3c-1.29,0-5.47.72-5-5.33s.21-34.2-5.12-49.18-10.51-14-10.51-14,.58,60,.58,63.28-.36,5.19-2.23,5.19H353.58c-1.66,0-3-.94-2.24-5.69s4.4-24.12,3.17-60.55C353.94,50.53,351.92,29.58,351.7,26.26Z" style="fill:#009640;fill-rule:evenodd"/><path d="M431.34,20.22c2.59-.15,5-.29,6.55-.36,3.53-.15,11.45,0,13.61,9.36a179.09,179.09,0,0,1,3.81,45.43c-.86,17.93-3.45,40.53-11.37,53.71-1.52,2.52-3.68,4.25-5.48,4.25h-7.12V95.89a23,23,0,0,0,1.08,2.88c1.58,3.67,6.19,7,8.06.79s5.26-23.47,4-39.1c-1.15-14.18-6.91-21.09-13.17-22.68ZM413.84,25c1.3-2.31,2.38-4.75,7.92-4.54,2.95.07,6.48-.07,9.58-.21V37.78a15.15,15.15,0,0,0-1.88-.28c-7-.58-11.37,14-11.37,21.09s-.58,4.11,1.08,10.3h0c1.08,2.81,5.47,1.87,7.13,7.92,1.36,5,3.45,14,5,19.08v36.72h-3.17c-1.87,0-6.41-.72-9.22-6.77A150.1,150.1,0,0,1,407.36,72V68.46a2,2,0,0,1,.07-.65C407.94,40.09,412.54,27.34,413.84,25Z" style="fill:#009640;fill-rule:evenodd"/><path d="M481.09,63.06c.72,2,.86,4.53,3.24,3.09s16.2-11.59,21.17-18.72,6.26-14.33,2.73-20.81-9.36-8.28-21.81-6.76-16.71.57-19.3,7.92-8.86,27-4.1,60.4,7.2,45.15,24.48,45.15c11.23,0,14.47-8.07,16.48-22s2.45-24.2,1.52-29.88-2.38-5.69-4.61-6.77-6.27-1.73-6.63,3.09.65,5.33,1.16,11.24c.5,6.91-2,13.32-7.92,14s-15.63-15-15.63-35,4-34.2,8.64-34.2S491.1,35,491.38,42.1c.15,5.33-4.32,9.87-7.77,13.4S480.37,61,481.09,63.06Z" style="fill:#009640;fill-rule:evenodd"/><path d="M319.66,63.06c.72,2,.87,4.53,3.32,3.09s16.12-11.59,21-18.72,6.26-14.33,2.74-20.81-9.29-8.28-21.75-6.76-16.7.57-19.29,7.92-8.86,27-4,60.4,7.13,45.15,24.41,45.15c11.23,0,14.47-8.07,16.56-22s2.31-24.2,1.37-29.88-2.3-5.69-4.46-6.77-6.27-1.73-6.7,3.09S333.49,83.07,334,89c.51,6.91-2,13.32-7.92,14s-15.62-15-15.62-35,4-34.2,8.64-34.2S329.67,35,330,42.1c.14,5.33-4.25,9.87-7.78,13.4S318.94,61,319.66,63.06Z" style="fill:#009640;fill-rule:evenodd"/><path d="M531.7,85.81c3.89-1.51,9-3.82,10,0,1.08,4.39-5.11,4.25-9,5.25a4.8,4.8,0,0,1-1,.29v8.5a26.58,26.58,0,0,1,8.14-1.08c1.87.21,2,4.1,1.51,6.48s-2.23,5.33-4.25,8.42h0c-2,3.17-4.6,8.07-4,12.67s2.23,6.27,5.11,6.27h16.56c4.25,0,3.68-11.59,3.68-30s-7-62-9.36-70.13-4-12.31-8.5-12.67a59.37,59.37,0,0,0-8.86,0V46.28c1.88-.58,3.32,1.37,4.47,5.54a161,161,0,0,1,3.67,19.66c.36,3.17,0,4.61-2.59,5.33-1.23.36-3.46,1.08-5.55,1.87Zm-10,6.77c-.94-2.16,4.53-5,8.42-6.2.5-.14,1-.36,1.58-.57V78.68c-2.08.72-4.17,1.44-5.25,1.8h0c-2.16.72-4,0-3.89-4.39S521.84,62,526.45,53c2-4,3.74-6.12,5.25-6.7V19.86h-1.58c-4.25,0-7.7,7.2-13.61,28.08s-6.77,69.19-7.13,76.39,1.3,8.42,3.32,8.28a35.83,35.83,0,0,1,4.89,0c2.74,0,1.51-11,1.3-16s.21-9.93,6.12-13.75a25,25,0,0,1,6.69-3v-8.5C527.82,92.58,522.49,94.59,521.7,92.58Z" style="fill:#009640;fill-rule:evenodd"/><path d="M637.33,85.81c3.89-1.51,9.07-3.82,10,0,1.08,4.39-5.12,4.25-9,5.25a3.84,3.84,0,0,1-1,.29v8.5a26.69,26.69,0,0,1,8.21-1.08c1.8.21,2,4.1,1.44,6.48s-2.24,5.33-4.25,8.42h0c-2,3.17-4.54,8.07-4,12.67s2.23,6.27,5.11,6.27h16.56c4.25,0,3.67-11.59,3.67-30s-7-62-9.36-70.13-4-12.31-8.42-12.67a60.32,60.32,0,0,0-8.93,0V46.28c1.87-.58,3.38,1.37,4.46,5.54a159,159,0,0,1,3.67,19.66c.44,3.17,0,4.61-2.52,5.33-1.29.36-3.45,1.08-5.61,1.87Zm-10,6.77c-.94-2.16,4.61-5,8.42-6.2.51-.14,1-.36,1.59-.57V78.68l-5.26,1.8h0c-2.16.72-4,0-3.81-4.39S627.46,62,632.07,53c2-4,3.82-6.12,5.26-6.7V19.86h-1.59c-4.24,0-7.7,7.2-13.6,28.08s-6.77,69.19-7.13,76.39,1.29,8.42,3.31,8.28a37,37,0,0,1,5,0c2.73,0,1.44-11,1.29-16s.15-9.93,6-13.75a25.11,25.11,0,0,1,6.7-3v-8.5C633.51,92.58,628.18,94.59,627.32,92.58Z" style="fill:#009640;fill-rule:evenodd"/><path d="M589.3,115.54c-2.23.36-3.16-1.87-3.31-4.1s-3-9.36-5.9-9.36c-7.13,0-8.64,24.48,3.67,24.12,9.58-.29,17.86-7.7,17.86-21S589.09,79,577.93,68.17s-16.06-41.83-9.58-44.43,14.26-5,30.31-5,18,3.67,16.92,12.31S610.4,53.84,601.76,54.2s-6.55-5.18-4.39-8.28,4.25-8.78-2.74-13.18S577.57,27,577,35.12s5,13.25,16.13,23.69S613,80,612.63,96c-.36,16.2-3.89,37.15-13.82,37.3s-23.47,2.23-29.38-5c-4.68-5.69-8.78-21.1-3.81-38.3,4.82-16.78,10.22-14.91,15.4-8.43s8.64,16.85,9.72,24C591.82,113,591.46,115.18,589.3,115.54Z" style="fill:#009640;fill-rule:evenodd"/><path d="M10.86,13.52H162.2c4.9,0,8.86,7.13,8.86,15.84V156.08c0,8.71-4,15.84-8.86,15.84H10.86C6,171.92,2,164.79,2,156.08V29.36C2,20.65,6,13.52,10.86,13.52Z" style="fill:#fff;stroke:#009640;stroke-miterlimit:10;stroke-width:4px;fill-rule:evenodd"/><polygon points="146.5 94.52 127.28 113.74 87.61 74.07 44.12 112.45 26.55 92.79 88.11 36.2 146.5 94.52" style="fill:#009640;fill-rule:evenodd"/><path d="M116.91,119.07a30.13,30.13,0,1,0-30.09,30.17A30.11,30.11,0,0,0,116.91,119.07Z" style="fill:#009640;fill-rule:evenodd"/></g></g></svg>